PathFileType	4	(X/Y/Z)	C:/Users/opensim2020/Desktop/walking_exp_matlab/subject03_walking04_straight_04.trc																																																																																																																																																							
DataRate	CameraRate	NumFrames	NumMarkers	Units	OrigDataRate	OrigDataStartFrame	OrigNumFrames																																																																																																																																																			
100	100	5	51	mm	100	3026	293																																																																																																																																																			
Frame#	Time	LFHD			RFHD			LBHD			RBHD			C7			T10			CLAV			STRN			RBAK			LSHO			LUPA			LELB			LFRM			LWRA			LWRB			LFIN			RSHO			RUPA			RELB			RFRM			RWRA			RWRB			RFIN			LASI			RASI			LPSI			RPSI			LTHI			LKNE			LTIB			LANK			LHEE			LTOE			RTHI			RKNE			RTIB			RANK			RHEE			RTOE			*39			*40			*41			*42			*43			*44			*45			*46			*47			*48			*49			*50		
		X1	Y1	Z1	X2	Y2	Z2	X3	Y3	Z3	X4	Y4	Z4	X5	Y5	Z5	X6	Y6	Z6	X7	Y7	Z7	X8	Y8	Z8	X9	Y9	Z9	X10	Y10	Z10	X11	Y11	Z11	X12	Y12	Z12	X13	Y13	Z13	X14	Y14	Z14	X15	Y15	Z15	X16	Y16	Z16	X17	Y17	Z17	X18	Y18	Z18	X19	Y19	Z19	X20	Y20	Z20	X21	Y21	Z21	X22	Y22	Z22	X23	Y23	Z23	X24	Y24	Z24	X25	Y25	Z25	X26	Y26	Z26	X27	Y27	Z27	X28	Y28	Z28	X29	Y29	Z29	X30	Y30	Z30	X31	Y31	Z31	X32	Y32	Z32	X33	Y33	Z33	X34	Y34	Z34	X35	Y35	Z35	X36	Y36	Z36	X37	Y37	Z37	X38	Y38	Z38	X39	Y39	Z39	X40	Y40	Z40	X41	Y41	Z41	X42	Y42	Z42	X43	Y43	Z43	X44	Y44	Z44	X45	Y45	Z45	X46	Y46	Z46	X47	Y47	Z47	X48	Y48	Z48	X49	Y49	Z49	X50	Y50	Z50	X51	Y51	Z51
																																																																																																																																																										
1	0	-1458.83301	1624.99097	-1677.12488	-1484.0459	1631.20483	-1546.55188	-1587.02246	1584.27502	-1696.11694	-1606.76929	1590.48596	-1566.62927	-1628.67456	1424.95752	-1633.76416	-1665.41418	1112.47888	-1634.87659	-1508.00305	1347.76282	-1623.61548	-1462.42188	1183.6427	-1624.41638	-1686.71082	1251.40149	-1536.55859	-1540.29993	1385.51172	-1781.96545	-1549.70496	1189.27283	-1856.55762	-1545.59692	1066.88391	-1872.81165	-1520.58264	938.98724	-1876.26563	-1504.18774	819.49457	-1850.16113	-1525.59302	826.78723	-1901.11548	-1514.73633	742.18365	-1893.81189	-1560.80139	1373.26819	-1469.05554	-1545.3562	1148.68909	-1404.5741	-1519.91479	1037.76245	-1399.02258	-1485.81372	905.44336	-1406.47253	-1445.73694	817.47186	-1450.59045	-1473.39014	805.38464	-1405.73901	-1441.84778	739.21509	-1422.18201	-1490.03699	950.85205	-1743.54895	-1509.28223	940.20178	-1507.52405	-1654.20532	978.23578	-1705.1886	-1663.40747	977.26508	-1555.33643	-1531.41614	651.0058	-1790.49011	-1509.06238	473.82834	-1748.15662	-1538.88647	282.51358	-1755.16333	-1534.03247	72.82953	-1719.20642	-1572.28931	35.1394	-1683.95398	-1380.20203	37.53438	-1684.75415	-1576.98816	639.68933	-1473.2262	-1572.07947	459.94852	-1500.55908	-1715.5885	330.17664	-1499.3064	-1870.15881	179.66061	-1542.69641	-1916.67236	202.37834	-1592.02991	-1833.82141	44.40688	-1589.74341	NaN	NaN	NaN	NaN	NaN	NaN	NaN	NaN	NaN	NaN	NaN	NaN	NaN	NaN	NaN	NaN	NaN	NaN	NaN	NaN	NaN	NaN	NaN	NaN	NaN	NaN	NaN	NaN	NaN	NaN	NaN	NaN	NaN	NaN	NaN	NaN
2	0.01	-1450.63501	1625.27478	-1678.43945	-1476.26563	1631.83875	-1547.92578	-1578.72253	1584.16479	-1697.94702	-1598.78748	1590.59546	-1568.34851	-1620.31592	1425.04724	-1635.29358	-1657.02087	1112.62097	-1637.12158	-1499.72534	1347.901	-1624.34644	-1454.98645	1183.38318	-1625.09131	-1678.17419	1251.1665	-1538.04846	-1530.96692	1385.42651	-1782.98804	-1538.27478	1189.31897	-1858.02258	-1532.56726	1067.03687	-1874.49475	-1505.35498	939.62622	-1877.94922	-1486.73254	820.46667	-1851.8125	-1508.33325	827.37878	-1902.6908	-1496.005	742.95337	-1895.36426	-1553.04663	1373.45337	-1470.1676	-1539.4115	1148.7345	-1405.17371	-1515.45325	1037.55164	-1399.11646	-1483.3855	904.56787	-1405.75195	-1444.55249	815.67554	-1449.26367	-1472.73474	804.34747	-1404.49402	-1442.82825	737.10876	-1420.64063	-1481.18213	950.39612	-1744.43945	-1501.92749	940.08972	-1508.50024	-1645.6698	978.26392	-1706.91919	-1655.79626	976.96436	-1557.13513	-1526.60974	651.28778	-1792.81763	-1504.93457	473.60022	-1749.20984	-1536.46716	282.55496	-1755.86511	-1533.8241	72.82857	-1719.2887	-1572.37463	35.21547	-1684.10657	-1380.08447	37.32743	-1684.69226	-1564.70764	639.24286	-1473.755	-1554.96399	459.60245	-1501.02087	-1698.53467	331.10507	-1498.98511	-1857.16235	185.10988	-1542.8822	-1903.17236	209.37935	-1591.98645	-1824.06494	49.05136	-1588.29639	NaN	NaN	NaN	NaN	NaN	NaN	NaN	NaN	NaN	NaN	NaN	NaN	NaN	NaN	NaN	NaN	NaN	NaN	NaN	NaN	NaN	NaN	NaN	NaN	NaN	NaN	NaN	NaN	NaN	NaN	NaN	NaN	NaN	NaN	NaN	NaN
3	0.02	-1442.43335	1625.52905	-1679.55164	-1468.61865	1632.34937	-1549.14868	-1570.32043	1584.01147	-1699.48267	-1590.66748	1590.57629	-1569.73462	-1612.03833	1425.19019	-1636.81836	-1648.37939	1112.53101	-1638.84985	-1491.48694	1348.11877	-1625.10986	-1447.06628	1183.19824	-1625.91272	-1670.2998	1251.04028	-1539.94031	-1521.69409	1385.09314	-1783.95605	-1526.8396	1189.09314	-1859.46118	-1519.45325	1067.04895	-1876.28528	-1489.99219	940.08185	-1879.48413	-1469.26868	821.39496	-1853.23511	-1491.00244	827.81915	-1904.09863	-1476.96118	743.73889	-1896.77979	-1545.40637	1373.38721	-1471.05212	-1533.51917	1148.63416	-1405.80701	-1511.05542	1036.96826	-1399.25769	-1480.83765	903.53967	-1405.03125	-1443.19849	813.65955	-1447.70654	-1471.9469	803.1109	-1403.12915	-1443.59094	734.89337	-1419.0094	-1472.33313	950.05652	-1745.34241	-1492.62646	939.93311	-1508.08984	-1638.3125	978.55884	-1709.24353	-1648.14404	976.3316	-1558.77625	-1520.14673	651.47961	-1794.08716	-1500.88403	473.47241	-1750.37769	-1534.2146	282.65692	-1756.67346	-1533.8208	72.89989	-1719.47217	-1572.34131	35.21089	-1684.20618	-1379.95227	37.17519	-1684.65027	-1552.36255	638.85034	-1474.84705	-1537.74243	459.55551	-1501.57971	-1681.43347	332.52264	-1499.16052	-1843.67297	191.13106	-1543.09241	-1889.66077	214.73286	-1593.43372	-1811.13684	53.75401	-1585.65149	-1531.56958	1691.21948	-1646.87244	NaN	NaN	NaN	NaN	NaN	NaN	NaN	NaN	NaN	NaN	NaN	NaN	NaN	NaN	NaN	NaN	NaN	NaN	NaN	NaN	NaN	NaN	NaN	NaN	NaN	NaN	NaN	NaN	NaN	NaN	NaN	NaN	NaN
4	0.03	-1434.22632	1625.69604	-1680.6189	-1460.93323	1632.70508	-1550.36035	-1561.94006	1583.84778	-1700.90002	-1583.07227	1590.76318	-1571.52002	-1603.61719	1425.25659	-1638.13428	-1640.09863	1112.63757	-1640.59778	-1483.22607	1348.24609	-1625.81104	-1439.50574	1183.12366	-1626.52295	-1663.03149	1251.13989	-1542.29834	-1512.52625	1384.61755	-1784.88135	-1515.36731	1188.72266	-1860.78564	-1506.15881	1066.83386	-1877.84802	-1474.53845	940.30048	-1880.76892	-1451.8031	822.37329	-1854.49902	-1473.53137	828.16583	-1905.33618	-1457.65405	744.58685	-1897.98547	-1537.9856	1373.14453	-1471.92957	-1527.44006	1148.13135	-1406.34778	-1506.05408	1036.40515	-1399.1333	-1478.17285	902.30255	-1404.16699	-1441.77502	811.63989	-1446.08679	-1471.0365	801.78064	-1401.65381	-1444.09546	732.83722	-1417.41101	-1463.953	949.84851	-1745.97876	-1485.23462	939.87866	-1508.65784	-1629.08142	978.06714	-1709.53357	-1640.57837	975.73016	-1560.30505	-1513.61914	651.62006	-1794.86743	-1496.74451	473.53418	-1751.35315	-1531.82471	282.72543	-1757.34448	-1533.67175	72.96661	-1719.604	-1572.39612	35.29427	-1684.37183	-1379.80737	37.01824	-1684.51428	-1540.33655	638.85388	-1475.50708	-1520.4978	459.8331	-1502.00708	-1664.59814	334.72916	-1499.96509	-1829.7179	196.54561	-1544.30261	-1875.1344	218.56065	-1595.10278	-1795.64795	58.39301	-1582.44836	NaN	NaN	NaN	NaN	NaN	NaN	NaN	NaN	NaN	NaN	NaN	NaN	NaN	NaN	NaN	NaN	NaN	NaN	NaN	NaN	NaN	NaN	NaN	NaN	NaN	NaN	NaN	NaN	NaN	NaN	NaN	NaN	NaN	NaN	NaN	NaN
5	0.04	-1426.06287	1625.8418	-1681.59985	-1453.15417	1633.01636	-1551.4873	-1553.62585	1583.6366	-1702.25049	-1575.32373	1590.88525	-1573.07849	-1595.255	1425.38477	-1639.39246	-1632.42078	1112.95569	-1642.42371	-1475.00061	1348.21509	-1626.40637	-1431.2948	1183.06287	-1627.03223	-1655.4856	1251.00952	-1544.40283	-1503.38611	1384.07898	-1785.74268	-1503.8877	1188.34631	-1861.92883	-1492.8877	1066.77417	-1879.39844	-1459.10938	940.80658	-1882.02063	-1434.52087	823.24896	-1855.41394	-1455.97656	828.60077	-1906.39453	-1438.00879	745.4693	-1898.93604	-1530.55408	1372.7699	-1472.63049	-1521.6272	1147.59656	-1406.85706	-1501.29797	1035.67163	-1399.07141	-1475.35815	900.99103	-1403.39734	-1440.27393	809.60645	-1444.31519	-1470.06116	800.46173	-1400.05005	-1444.422	730.73157	-1415.49854	-1455.64197	949.84576	-1746.76465	-1477.84961	939.7392	-1509.29492	-1620.98206	978.17224	-1710.48315	-1632.90552	975.07703	-1561.58948	-1507.05127	651.65424	-1795.09778	-1492.38257	473.47791	-1751.94177	-1529.28418	282.78952	-1757.77185	-1531.62646	71.19752	-1718.14636	-1572.39746	35.43856	-1684.44958	-1379.65247	36.85056	-1684.36084	-1528.40552	639.20319	-1475.93237	-1503.11426	460.66516	-1502.38623	-1647.99121	337.3049	-1501.3501	-1814.62012	201.20638	-1545.48022	-1860.0719	221.28366	-1597.44775	-1777.8407	62.62706	-1579.01636	NaN	NaN	NaN	NaN	NaN	NaN	NaN	NaN	NaN	NaN	NaN	NaN	NaN	NaN	NaN	NaN	NaN	NaN	NaN	NaN	NaN	NaN	NaN	NaN	NaN	NaN	NaN	NaN	NaN	NaN	NaN	NaN	NaN	NaN	NaN	NaN
